<?xml version="1.0" standalone="no"?>
<!DOCTYPE svg PUBLIC "-//W3C//DTD SVG 20010904//EN"
 "http://www.w3.org/TR/2001/REC-SVG-20010904/DTD/svg10.dtd">
<svg version="1.0" xmlns="http://www.w3.org/2000/svg"
 width="700.000000pt" height="700.000000pt" viewBox="0 0 700.000000 700.000000"
 preserveAspectRatio="xMidYMid meet">
<metadata>
Created by potrace 1.11, written by Peter Selinger 2001-2013
</metadata>
<g transform="translate(0.000000,700.000000) scale(0.100000,-0.100000)"
fill="#000000" stroke="none">
<path d="M3310 6645 l0 -355 25 -40 25 -39 -53 -3 -52 -3 -52 -150 c-28 -82
-102 -296 -163 -475 -188 -545 -206 -599 -268 -780 -33 -96 -102 -294 -152
-440 -51 -146 -96 -278 -100 -293 -8 -25 -5 -31 33 -59 55 -40 111 -65 168
-73 54 -8 38 -35 124 215 29 85 97 281 150 435 53 154 143 417 200 584 57 167
106 306 109 309 4 3 6 -106 6 -241 l0 -247 190 0 190 0 1 248 c0 179 3 240 11
222 8 -21 143 -409 195 -560 8 -25 39 -115 68 -200 30 -85 97 -281 150 -435
130 -379 109 -338 164 -330 55 8 134 45 178 83 l32 27 -19 55 c-42 121 -182
528 -197 570 -28 82 -424 1232 -477 1385 l-52 150 -52 3 -52 3 25 39 25 40 0
355 0 355 -190 0 -190 0 0 -355z"/>
<path d="M2890 6149 c-72 -15 -275 -68 -303 -78 l-26 -10 36 -106 c19 -58 34
-108 32 -110 -2 -1 -42 -16 -89 -33 -47 -17 -122 -46 -167 -65 l-82 -36 -50
105 -50 105 -93 -47 c-51 -26 -117 -62 -146 -80 -29 -19 -56 -34 -60 -34 -4 0
-19 -10 -34 -23 l-27 -22 59 -90 c32 -49 59 -93 59 -96 1 -3 -31 -27 -71 -54
-39 -26 -105 -74 -146 -106 l-74 -60 -20 23 c-11 13 -43 51 -71 86 -28 34 -54
62 -59 62 -11 0 -210 -182 -261 -239 l-37 -41 63 -59 c35 -33 73 -68 85 -78
l22 -18 -51 -60 c-29 -33 -79 -96 -112 -140 -33 -44 -62 -82 -63 -84 -3 -3
-71 41 -146 96 l-48 34 -54 -83 c-81 -124 -157 -260 -151 -267 4 -3 182 -6
396 -6 l390 0 32 39 c171 213 291 331 472 467 226 169 457 289 722 373 56 18
105 34 107 37 3 3 34 111 69 241 l64 237 -18 103 c-10 57 -19 109 -19 116 0
14 -16 14 -80 1z"/>
<path d="M4013 6043 c-13 -74 -18 -126 -12 -143 4 -14 31 -113 59 -220 29
-107 54 -203 56 -212 3 -11 38 -27 102 -48 480 -157 872 -424 1170 -797 36
-46 70 -84 76 -84 29 -3 786 -4 786 0 0 10 -87 161 -144 250 l-66 102 -78 -56
c-119 -85 -105 -84 -159 -13 -27 34 -78 98 -115 142 l-68 81 23 19 c12 10 51
45 86 78 l64 61 -94 91 c-126 122 -196 186 -206 186 -4 0 -30 -28 -58 -61 -27
-34 -59 -72 -70 -85 l-20 -24 -65 51 c-36 27 -99 73 -140 101 -41 28 -79 54
-83 58 -5 4 19 51 53 105 34 53 60 98 58 99 -35 28 -349 196 -365 196 -1 0 -3
-4 -3 -9 0 -4 -20 -51 -45 -104 l-46 -96 -82 36 c-45 19 -121 49 -169 65 -101
34 -96 17 -48 166 l28 87 -81 23 c-97 27 -290 72 -310 72 -9 0 -19 -34 -34
-117z"/>
<path d="M3639 4420 c-285 -49 -466 -724 -349 -1301 97 -477 345 -682 562
-464 54 54 123 183 161 300 29 89 67 267 67 313 0 55 8 62 64 62 80 0 200 34
306 87 80 40 110 62 191 143 89 89 100 104 164 233 74 147 100 183 155 213 33
18 74 19 927 21 870 1 893 2 937 22 25 11 61 32 81 46 41 32 95 134 95 182 0
29 -3 33 -27 34 -16 0 -468 1 -1005 1 -1018 0 -1027 0 -1120 -42 -122 -55
-197 -139 -284 -320 -72 -149 -124 -212 -211 -255 -53 -27 -68 -29 -162 -30
l-104 0 -4 30 c-21 187 -68 365 -130 490 -84 171 -196 255 -314 235z"/>
<path d="M3257 4366 c-158 -57 -287 -297 -331 -616 l-11 -85 -40 -5 c-68 -8
-170 7 -228 34 -83 40 -140 108 -208 250 -88 184 -148 254 -270 317 -99 51
-92 51 -1127 50 -532 0 -984 0 -1004 0 -36 -1 -38 -3 -38 -33 0 -43 39 -125
80 -167 18 -18 56 -44 85 -57 l53 -24 893 -3 894 -2 47 -27 c53 -32 62 -45
149 -218 57 -113 72 -134 159 -220 80 -80 110 -103 190 -143 106 -53 226 -87
306 -87 59 0 58 0 69 -85 36 -289 159 -534 307 -611 29 -16 198 -34 198 -22 0
2 -22 27 -49 55 -105 113 -193 344 -217 574 -3 35 -8 67 -10 71 -7 11 -5 317
1 378 31 281 116 518 227 632 26 27 48 51 48 54 0 10 -138 2 -173 -10z"/>
<path d="M215 3961 c-7 -13 12 -68 34 -100 11 -16 38 -37 58 -47 36 -17 86
-18 915 -19 483 0 878 2 878 4 0 8 -44 77 -64 99 -12 13 -39 34 -61 45 -40 22
-40 22 -897 24 -472 1 -860 -2 -863 -6z"/>
<path d="M5075 3960 c-47 -10 -90 -36 -119 -71 -33 -39 -58 -87 -48 -92 4 -2
399 -3 877 -2 827 1 872 2 908 20 44 21 84 76 89 120 l3 30 -840 1 c-462 0
-853 -2 -870 -6z"/>
<path d="M530 3713 c0 -52 43 -112 96 -135 22 -9 215 -12 812 -13 430 -1 781
1 780 5 -2 4 -23 43 -48 86 l-44 79 -798 0 -798 0 0 -22z"/>
<path d="M4865 3715 c-42 -69 -85 -143 -85 -147 0 -3 355 -5 788 -4 l789 1 41
28 c42 30 72 78 72 119 l0 23 -796 0 c-788 0 -797 0 -809 -20z"/>
<path d="M853 3502 c-47 -7 -10 -104 54 -143 l38 -24 778 -3 c427 -1 777 1
777 5 0 5 -20 19 -44 32 -25 12 -75 48 -112 79 l-67 55 -701 1 c-386 1 -711 0
-723 -2z"/>
<path d="M4746 3502 c-16 -2 -56 -26 -93 -57 -35 -29 -84 -64 -109 -76 -24
-13 -44 -27 -44 -31 0 -13 1509 -10 1553 3 49 13 104 69 113 114 3 20 4 39 0
42 -6 6 -1367 11 -1420 5z"/>
<path d="M409 3364 c-1 -11 -3 -35 -4 -54 -4 -47 -7 -190 -6 -274 l1 -68 115
4 c97 3 115 1 115 -12 2 -35 12 -132 25 -234 8 -60 13 -111 11 -113 -1 -2 -48
-11 -102 -20 -54 -8 -103 -19 -108 -24 -12 -11 8 -124 50 -273 18 -65 35 -120
37 -122 2 -2 52 11 111 30 l107 34 8 -21 c5 -12 17 -49 29 -82 11 -33 37 -98
56 -143 20 -46 36 -87 36 -91 0 -4 -43 -27 -96 -51 -52 -24 -97 -47 -100 -52
-8 -13 148 -307 187 -352 4 -5 47 17 96 48 49 31 94 56 100 56 6 0 21 -16 34
-36 12 -20 57 -83 100 -140 44 -58 79 -108 79 -112 0 -4 -38 -38 -85 -76 -97
-80 -99 -62 15 -186 40 -44 77 -77 81 -73 4 5 53 141 109 303 56 162 112 324
124 360 l24 65 -58 85 c-240 356 -378 743 -415 1165 -3 38 -7 70 -8 71 -1 0
-119 89 -262 197 l-261 195 -72 7 c-66 7 -72 6 -73 -11z"/>
<path d="M6480 3372 c-24 -2 -59 -22 -110 -61 -79 -59 -444 -334 -447 -335 0
-1 -4 -30 -7 -66 -45 -448 -190 -851 -428 -1189 l-45 -65 23 -65 c12 -36 68
-199 124 -361 56 -162 105 -298 109 -303 6 -6 105 95 160 164 l20 26 -84 69
c-46 38 -84 73 -85 77 0 5 28 45 63 90 35 45 83 110 106 144 l43 61 85 -54
c47 -31 91 -58 98 -60 8 -3 32 26 63 78 47 79 142 261 142 273 0 4 -44 27 -97
51 -54 25 -100 47 -101 49 -2 2 19 59 46 127 27 68 55 141 62 163 7 22 14 43
16 47 3 4 41 -6 87 -21 146 -49 133 -52 157 31 27 88 80 321 75 327 -2 2 -52
12 -112 23 -59 10 -108 20 -110 22 -1 1 4 47 12 102 13 94 24 195 25 239 0 19
6 20 115 17 l115 -4 1 94 c0 95 -2 202 -6 273 -2 39 -3 40 -41 40 -21 0 -55
-1 -74 -3z"/>
<path d="M2196 3133 c-8 -26 -31 -95 -51 -153 -21 -58 -87 -249 -147 -425 -60
-176 -129 -376 -153 -445 -24 -69 -93 -269 -153 -445 -61 -176 -154 -446 -207
-600 -153 -445 -160 -468 -207 -753 l-44 -264 31 -24 c18 -13 36 -24 41 -24 6
0 22 24 37 53 26 52 68 130 189 352 63 117 82 166 256 675 101 292 176 511
272 790 54 157 169 490 255 740 86 250 163 474 172 498 9 23 14 44 11 47 -7 7
-63 13 -180 20 l-107 7 -15 -49z"/>
<path d="M4687 3174 c-1 -1 -42 -4 -90 -7 -48 -2 -90 -7 -93 -10 -3 -3 26 -97
64 -209 39 -111 116 -336 172 -498 56 -162 125 -365 155 -450 29 -85 74 -216
100 -290 25 -74 55 -160 65 -190 10 -30 57 -167 105 -305 48 -137 110 -320
140 -405 29 -85 61 -177 70 -205 23 -66 38 -94 72 -130 15 -16 57 -64 93 -105
36 -41 82 -93 102 -115 40 -44 60 -67 120 -137 38 -45 41 -47 63 -32 22 14 22
16 8 57 -29 81 -196 564 -253 732 -32 94 -106 310 -165 480 -59 171 -156 454
-217 630 -60 176 -129 376 -153 445 -105 301 -247 717 -252 733 -5 14 -15 17
-54 16 -27 -2 -50 -3 -52 -5z"/>
<path d="M3265 2182 c-16 -15 -68 -59 -115 -97 -47 -38 -91 -75 -97 -81 -10
-9 -1 -22 41 -58 l53 -45 41 35 42 35 80 -67 81 -68 -25 -20 c-13 -12 -70 -59
-126 -106 -56 -47 -115 -96 -131 -110 l-30 -25 37 -30 c21 -17 44 -36 51 -43
7 -8 19 -12 26 -9 6 3 77 60 156 126 79 67 147 121 150 121 6 0 73 -53 131
-103 71 -62 179 -147 187 -147 4 1 30 20 56 44 l48 43 -156 129 -156 129 26
23 c33 28 35 28 80 -8 21 -16 39 -30 40 -30 1 0 19 13 39 29 l37 29 -41 33
c-46 37 -48 44 -20 59 17 9 27 6 60 -20 43 -34 57 -32 95 10 17 19 18 23 5 33
-9 7 -67 55 -130 108 -63 52 -121 99 -128 103 -8 5 -26 -4 -47 -23 l-34 -30
44 -38 45 -38 -24 -17 c-23 -17 -25 -16 -64 17 -22 19 -43 35 -47 35 -4 0 -22
-13 -41 -29 l-33 -29 45 -37 44 -36 -30 -26 c-27 -22 -33 -24 -48 -11 -9 8
-45 38 -79 67 l-63 53 61 50 c33 28 57 54 52 58 -9 8 -126 40 -145 40 -7 0
-26 -12 -43 -28z"/>
<path d="M1962 1198 c-44 -120 -144 -419 -141 -422 20 -17 214 -140 273 -174
l77 -43 -51 -93 c-27 -52 -50 -99 -50 -104 0 -25 388 -190 395 -169 19 53 59
166 66 184 l8 21 78 -25 c43 -14 126 -37 184 -51 l106 -27 -22 -110 c-12 -60
-21 -112 -19 -114 11 -13 410 -68 420 -58 2 2 6 30 9 63 3 32 8 82 11 109 l5
51 189 1 189 0 5 -51 c7 -63 15 -158 16 -169 0 -15 407 37 425 54 2 2 -7 53
-20 112 l-23 108 25 10 c14 5 42 12 62 15 20 3 91 23 159 44 l123 38 10 -27
c6 -14 20 -53 31 -86 12 -33 24 -70 29 -82 l8 -22 98 39 c148 58 293 128 293
141 0 7 -22 54 -49 104 -37 69 -47 95 -38 104 6 6 14 11 18 11 14 0 278 163
318 196 4 4 -139 425 -148 436 -4 4 -47 -22 -96 -58 -356 -260 -746 -409
-1205 -460 -100 -12 -404 -8 -510 5 -428 55 -822 210 -1152 453 -100 74 -97
73 -106 46z"/>
</g>
</svg>
